# xmcd CD database file
#
# Track frame offsets:
#	180
#	22800
#	35597
#	45841
#	65339
#	77963
#	114339
#	130249
#	158260
#	176864
#	188409
#	200469
#	222446
#	244919
#	259731
#
# Disc length: 3637 seconds
#
# Revision: 3
# Processed by: cddbd v1.5.2PL0 Copyright (c) Steve Scherf et al.
# Submitted via: CDex 1.70beta2
#
DISCID=c10e330f
DTITLE=The STARLIGHT Collection - The Blues Collection Vol. 1
DYEAR=1994
DGENRE=Blues
TTITLE0=Eric Clapton - The First Time I Met The Blues
TTITLE1=John Lee Hooker - Hobo Blues
TTITLE2=Muddy Waters - Mean Red Spider
TTITLE3=Jeff Beck - New York City Blues
TTITLE4=Howin' Wolf - My Mind Is Rambin'
TTITLE5=Big Joe Turner - Roll Me Baby
TTITLE6=Eric Clapton - Louise
TTITLE7=B.B. King - Payin' The Cost To Be The Boss
TTITLE8=Memphis Slim - Gambler's Blues
TTITLE9=Muddy Waters - Goin' Home
TTITLE10=John Lee Hooker - Crawling King Snake
TTITLE11=B.B. King - The Thrill Is Gone
TTITLE12=Eric Clapton - Five Long Years
TTITLE13=Sonny Terry and Brownie McGhee - Gonna Lay My Body Down
TTITLE14=Elmore James - Dust My Broom
EXTD=YEAR: 1994
EXTT0=
EXTT1=
EXTT2=
EXTT3=
EXTT4=
EXTT5=
EXTT6=
EXTT7=
EXTT8=
EXTT9=
EXTT10=
EXTT11=
EXTT12=
EXTT13=
EXTT14=
PLAYORDER=
